<svg width="661" height="1083" viewBox="0 0 661 1083" fill="none" xmlns="http://www.w3.org/2000/svg">
<path d="M518.905 1083H59.4306V1003.24C45.1501 1005.44 38.7596 1006.25 127.441 991.893C216.123 977.533 231.235 974.623 356.108 1000.19C365.925 1004.26 403.983 1014.42 477.67 1022.54C551.357 1030.67 535.863 1066.23 518.905 1083Z" fill="url(#paint0_linear_533_431)"/>
<path d="M641.671 0H11.5615V235.373C-8.02235 228.876 -16.7861 226.478 104.829 268.855C226.445 311.232 247.169 319.819 418.415 244.368C431.879 232.375 484.07 202.391 585.122 178.404C686.175 154.417 664.926 49.4733 641.671 0Z" fill="url(#paint1_linear_533_431)"/>
<defs>
<linearGradient id="paint0_linear_533_431" x1="292" y1="1083" x2="292" y2="981" gradientUnits="userSpaceOnUse">
<stop stop-color="#4169E1"/>
<stop offset="1" stop-color="#24397B"/>
</linearGradient>
<linearGradient id="paint1_linear_533_431" x1="330.5" y1="0" x2="330.5" y2="301" gradientUnits="userSpaceOnUse">
<stop stop-color="#4169E1"/>
<stop offset="1" stop-color="#24397B"/>
</linearGradient>
</defs>
</svg>
